name C:\Users\u0101727\Documents\MyRepositories\upper-imu-dc\OpenSim\subject0\MA\ResultsMA\grid_4nodes_9dim\angles_6.mot
datacolumns 10
datarows 52
range 600.01000000 600.52000000
endheader 
time	clav_prot	clav_elev	scapula_abduction	scapula_elevation	scapula_upward_rot	scapula_winging	plane_elv	shoulder_elv	axial_rot	
        600.01000000	        -50.00000000	        -10.00000000	         -3.33333333	         -3.33333333	         60.00000000	          0.00000000	         30.00000000	        100.00000000	        -90.00000000	
        600.02000000	        -38.33333333	        -10.00000000	         -3.33333333	         -3.33333333	         60.00000000	          0.00000000	         30.00000000	        100.00000000	        -90.00000000	
        600.03000000	        -26.66666667	        -10.00000000	         -3.33333333	         -3.33333333	         60.00000000	          0.00000000	         30.00000000	        100.00000000	        -90.00000000	
        600.04000000	        -15.00000000	        -10.00000000	         -3.33333333	         -3.33333333	         60.00000000	          0.00000000	         30.00000000	        100.00000000	        -90.00000000	
        600.05000000	        -50.00000000	          0.00000000	         -3.33333333	         -3.33333333	         60.00000000	          0.00000000	         30.00000000	        100.00000000	        -90.00000000	
        600.06000000	        -38.33333333	          0.00000000	         -3.33333333	         -3.33333333	         60.00000000	          0.00000000	         30.00000000	        100.00000000	        -90.00000000	
        600.07000000	        -26.66666667	          0.00000000	         -3.33333333	         -3.33333333	         60.00000000	          0.00000000	         30.00000000	        100.00000000	        -90.00000000	
        600.08000000	        -15.00000000	          0.00000000	         -3.33333333	         -3.33333333	         60.00000000	          0.00000000	         30.00000000	        100.00000000	        -90.00000000	
        600.09000000	        -50.00000000	         10.00000000	         -3.33333333	         -3.33333333	         60.00000000	          0.00000000	         30.00000000	        100.00000000	        -90.00000000	
        600.10000000	        -38.33333333	         10.00000000	         -3.33333333	         -3.33333333	         60.00000000	          0.00000000	         30.00000000	        100.00000000	        -90.00000000	
        600.11000000	        -26.66666667	         10.00000000	         -3.33333333	         -3.33333333	         60.00000000	          0.00000000	         30.00000000	        100.00000000	        -90.00000000	
        600.12000000	        -15.00000000	         10.00000000	         -3.33333333	         -3.33333333	         60.00000000	          0.00000000	         30.00000000	        100.00000000	        -90.00000000	
        600.13000000	        -50.00000000	         20.00000000	         -3.33333333	         -3.33333333	         60.00000000	          0.00000000	         30.00000000	        100.00000000	        -90.00000000	
        600.14000000	        -38.33333333	         20.00000000	         -3.33333333	         -3.33333333	         60.00000000	          0.00000000	         30.00000000	        100.00000000	        -90.00000000	
        600.15000000	        -26.66666667	         20.00000000	         -3.33333333	         -3.33333333	         60.00000000	          0.00000000	         30.00000000	        100.00000000	        -90.00000000	
        600.16000000	        -15.00000000	         20.00000000	         -3.33333333	         -3.33333333	         60.00000000	          0.00000000	         30.00000000	        100.00000000	        -90.00000000	
        600.17000000	        -50.00000000	        -10.00000000	         15.00000000	         -3.33333333	         60.00000000	          0.00000000	         30.00000000	        100.00000000	        -90.00000000	
        600.18000000	        -38.33333333	        -10.00000000	         15.00000000	         -3.33333333	         60.00000000	          0.00000000	         30.00000000	        100.00000000	        -90.00000000	
        600.19000000	        -26.66666667	        -10.00000000	         15.00000000	         -3.33333333	         60.00000000	          0.00000000	         30.00000000	        100.00000000	        -90.00000000	
        600.20000000	        -15.00000000	        -10.00000000	         15.00000000	         -3.33333333	         60.00000000	          0.00000000	         30.00000000	        100.00000000	        -90.00000000	
        600.21000000	        -50.00000000	          0.00000000	         15.00000000	         -3.33333333	         60.00000000	          0.00000000	         30.00000000	        100.00000000	        -90.00000000	
        600.22000000	        -38.33333333	          0.00000000	         15.00000000	         -3.33333333	         60.00000000	          0.00000000	         30.00000000	        100.00000000	        -90.00000000	
        600.23000000	        -26.66666667	          0.00000000	         15.00000000	         -3.33333333	         60.00000000	          0.00000000	         30.00000000	        100.00000000	        -90.00000000	
        600.24000000	        -15.00000000	          0.00000000	         15.00000000	         -3.33333333	         60.00000000	          0.00000000	         30.00000000	        100.00000000	        -90.00000000	
        600.25000000	        -50.00000000	         10.00000000	         15.00000000	         -3.33333333	         60.00000000	          0.00000000	         30.00000000	        100.00000000	        -90.00000000	
        600.26000000	        -38.33333333	         10.00000000	         15.00000000	         -3.33333333	         60.00000000	          0.00000000	         30.00000000	        100.00000000	        -90.00000000	
        600.27000000	        -26.66666667	         10.00000000	         15.00000000	         -3.33333333	         60.00000000	          0.00000000	         30.00000000	        100.00000000	        -90.00000000	
        600.28000000	        -15.00000000	         10.00000000	         15.00000000	         -3.33333333	         60.00000000	          0.00000000	         30.00000000	        100.00000000	        -90.00000000	
        600.29000000	        -50.00000000	         20.00000000	         15.00000000	         -3.33333333	         60.00000000	          0.00000000	         30.00000000	        100.00000000	        -90.00000000	
        600.30000000	        -38.33333333	         20.00000000	         15.00000000	         -3.33333333	         60.00000000	          0.00000000	         30.00000000	        100.00000000	        -90.00000000	
        600.31000000	        -26.66666667	         20.00000000	         15.00000000	         -3.33333333	         60.00000000	          0.00000000	         30.00000000	        100.00000000	        -90.00000000	
        600.32000000	        -15.00000000	         20.00000000	         15.00000000	         -3.33333333	         60.00000000	          0.00000000	         30.00000000	        100.00000000	        -90.00000000	
        600.33000000	        -50.00000000	        -10.00000000	        -40.00000000	          3.33333333	         60.00000000	          0.00000000	         30.00000000	        100.00000000	        -90.00000000	
        600.34000000	        -38.33333333	        -10.00000000	        -40.00000000	          3.33333333	         60.00000000	          0.00000000	         30.00000000	        100.00000000	        -90.00000000	
        600.35000000	        -26.66666667	        -10.00000000	        -40.00000000	          3.33333333	         60.00000000	          0.00000000	         30.00000000	        100.00000000	        -90.00000000	
        600.36000000	        -15.00000000	        -10.00000000	        -40.00000000	          3.33333333	         60.00000000	          0.00000000	         30.00000000	        100.00000000	        -90.00000000	
        600.37000000	        -50.00000000	          0.00000000	        -40.00000000	          3.33333333	         60.00000000	          0.00000000	         30.00000000	        100.00000000	        -90.00000000	
        600.38000000	        -38.33333333	          0.00000000	        -40.00000000	          3.33333333	         60.00000000	          0.00000000	         30.00000000	        100.00000000	        -90.00000000	
        600.39000000	        -26.66666667	          0.00000000	        -40.00000000	          3.33333333	         60.00000000	          0.00000000	         30.00000000	        100.00000000	        -90.00000000	
        600.40000000	        -15.00000000	          0.00000000	        -40.00000000	          3.33333333	         60.00000000	          0.00000000	         30.00000000	        100.00000000	        -90.00000000	
        600.41000000	        -50.00000000	         10.00000000	        -40.00000000	          3.33333333	         60.00000000	          0.00000000	         30.00000000	        100.00000000	        -90.00000000	
        600.42000000	        -38.33333333	         10.00000000	        -40.00000000	          3.33333333	         60.00000000	          0.00000000	         30.00000000	        100.00000000	        -90.00000000	
        600.43000000	        -26.66666667	         10.00000000	        -40.00000000	          3.33333333	         60.00000000	          0.00000000	         30.00000000	        100.00000000	        -90.00000000	
        600.44000000	        -15.00000000	         10.00000000	        -40.00000000	          3.33333333	         60.00000000	          0.00000000	         30.00000000	        100.00000000	        -90.00000000	
        600.45000000	        -50.00000000	         20.00000000	        -40.00000000	          3.33333333	         60.00000000	          0.00000000	         30.00000000	        100.00000000	        -90.00000000	
        600.46000000	        -38.33333333	         20.00000000	        -40.00000000	          3.33333333	         60.00000000	          0.00000000	         30.00000000	        100.00000000	        -90.00000000	
        600.47000000	        -26.66666667	         20.00000000	        -40.00000000	          3.33333333	         60.00000000	          0.00000000	         30.00000000	        100.00000000	        -90.00000000	
        600.48000000	        -15.00000000	         20.00000000	        -40.00000000	          3.33333333	         60.00000000	          0.00000000	         30.00000000	        100.00000000	        -90.00000000	
        600.49000000	        -50.00000000	        -10.00000000	        -21.66666667	          3.33333333	         60.00000000	          0.00000000	         30.00000000	        100.00000000	        -90.00000000	
        600.50000000	        -38.33333333	        -10.00000000	        -21.66666667	          3.33333333	         60.00000000	          0.00000000	         30.00000000	        100.00000000	        -90.00000000	
        600.51000000	        -26.66666667	        -10.00000000	        -21.66666667	          3.33333333	         60.00000000	          0.00000000	         30.00000000	        100.00000000	        -90.00000000	
        600.52000000	        -15.00000000	        -10.00000000	        -21.66666667	          3.33333333	         60.00000000	          0.00000000	         30.00000000	        100.00000000	        -90.00000000	
